{"title":"Angie Tribeca S02E08 The Coast is Fear 720p WEB-DL HEVC 2CH x265","uid":15495325,"size":161619313,"categoryP":"video","categoryS":"hd___tv_shows","magnet":"?xt=urn:btih:c34ab664aea1ab0a87a07001ae4d841309769f8d&amp;dn=Angie+Tribeca+S02E08+The+Coast+is+Fear+720p+WEB-DL+HEVC+2CH+x265&amp;tr=udp%3A%2F%2Ftracker.leechers-paradise.org%3A6969&amp;tr=udp%3A%2F%2Fzer0day.ch%3A1337&amp;tr=udp%3A%2F%2Fopen.demonii.com%3A1337&amp;tr=udp%3A%2F%2Ftracker.coppersurfer.tk%3A6969&amp;tr=udp%3A%2F%2Fexodus.desync.com%3A6969","seeders":0,"leechers":0,"uploader":"nayhtut","files":1,"time":1470431443,"description":"[Screenshots]\r\n \nhttps://s32.postimg.org/sh2tx6vjp/Angie_Tribeca_S02_E08_The_Coast_is_Fear_720p_WEB.jpg \nhttps://s32.postimg.org/544seofg5/Angie_Tribeca_S02_E08_The_Coast_is_Fear_720p_WEB.jpg\r\n\r\n   \r\nSource: Angie Tribeca S02E08 The Coast is Fear 1080p WEB-DL DD5 1 H264-NTb (845 MB)\r\n\r\n\r\n__--__--__--__--__--__--__--__--__--__--__--__--__--\r\n\r\n\r\nComplete name                            : Angie.Tribeca.S02E08.The.Coast.is.Fear.720p.WEB-DL.HEVC.2CH.x265.mkv\r\nFormat                                   : Matroska\r\nFormat version                           : Version 4 / Version 2\r\nFile size                                : 154 MiB\r\nDuration                                 : 21mn 4s\r\nOverall bit rate                         : 1 023 Kbps\r\nWriting application                      : Lavf57.25.100\r\nWriting library                          : Lavf57.25.100\r\n\r\nVideo\r\n\r\nID                                       : 1\r\nFormat                                   : V_MPEGH/ISO/HEVC\r\nCodec ID                                 : V_MPEGH/ISO/HEVC\r\nDuration                                 : 21mn 4s\r\nBit rate                                 : 810 Kbps\r\nWidth                                    : 1 274 pixels\r\nHeight                                   : 720 pixels\r\nDisplay aspect ratio                     : 16:9\r\nFrame rate                               : 25.000 fps\r\nBits/(Pixel*Frame)                       : 0.035\r\nStream size                              : 122 MiB (79%)\r\nWriting library                          : Lavc57.48.101 libx265\r\nLanguage                                 : English\r\nDefault                                  : Yes\r\nForced                                   : No\r\nDURATION                                 : 00:21:04.331000000\r\nNUMBER_OF_FRAMES                         : 30312\r\nNUMBER_OF_BYTES                          : 824950333\r\n_STATISTICS_WRITING_APP                  : mkvmerge v8.3.0 ('Over the Horizon') 64bit\r\n_STATISTICS_WRITING_DATE_UTC             : 2016-08-04 07:24:06\r\n_STATISTICS_TAGS                         : BPS DURATION NUMBER_OF_FRAMES NUMBER_OF_BYTES\r\n\r\nAudio\r\n\r\nID                                       : 2\r\nFormat                                   : AC-3\r\nFormat/Info                              : Audio Coding 3\r\nMode extension                           : CM (complete main)\r\nFormat settings, Endianness              : Big\r\nCodec ID                                 : A_AC3\r\nDuration                                 : 21mn 4s\r\nBit rate mode                            : Constant\r\nBit rate                                 : 192 Kbps\r\nChannel(s)                               : 2 channels\r\nChannel positions                        : Front: L R\r\nSampling rate                            : 48.0 KHz\r\nBit depth                                : 16 bits\r\nCompression mode                         : Lossy\r\nStream size                              : 28.9 MiB (19%)\r\nWriting library                          : Lavc57.24.102 ac3\r\nLanguage                                 : English\r\nDefault                                  : Yes\r\nForced                                   : No\r\nDURATION                                 : 00:21:04.319000000\r\nNUMBER_OF_FRAMES                         : 39508\r\nNUMBER_OF_BYTES                          : 60684288\r\n_STATISTICS_WRITING_APP                  : mkvmerge v8.3.0 ('Over the Horizon') 64bit\r\n_STATISTICS_WRITING_DATE_UTC             : 2016-08-04 07:24:06\r\n_STATISTICS_TAGS                         : BPS DURATION NUMBER_OF_FRAMES NUMBER_OF_BYTES\r\n\r\nText\r\n\r\nID                                       : 3\r\nFormat                                   : ASS\r\nCodec ID                                 : S_TEXT/ASS\r\nCodec ID/Info                            : Advanced Sub Station Alpha\r\nCompression mode                         : Lossless\r\nWriting library                          : Lavc57.48.101 ssa\r\nLanguage                                 : English\r\nDefault                                  : Yes\r\nForced                                   : No\r\nDURATION                                 : 00:20:28.343000000\r\nNUMBER_OF_FRAMES                         : 450\r\nNUMBER_OF_BYTES                          : 15806\r\n_STATISTICS_WRITING_APP                  : mkvmerge v8.3.0 ('Over the Horizon') 64bit\r\n_STATISTICS_WRITING_DATE_UTC             : 2016-08-04 07:24:06\r\n_STATISTICS_TAGS                         : BPS DURATION NUMBER_OF_FRAMES NUMBER_OF_BYTES\r\n\r\n\r\n__--__--__--__--__--__--__--__--__--__--__--__--__--\r\n\r\n\r\nIMDb: http://www.imdb.com/title/tt3597790\r\n\r\nAfter adding torrent with magnet link,\r\n\r\nplease add this  following trackers list to the torrent for better seeds.\r\n\r\n\r\nudp://tracker.coppersurfer.tk:6969/announce\r\n\r\nudp://tracker.opentrackr.org:1337/announce\r\n \nhttp://tracker.baravik.org:6970/announce\r\n \nhttp://tracker2.wasabii.com.tw:6969/announce\r\n\r\nudp://9.rarbg.me:2710/announce\r\n\r\n\r\n__--__--__--__--__--__--__--__--__--__--__--__--__--\r\n\r\n\r\nEnjoy!","torrent":{"xt":"urn:btih:c34ab664aea1ab0a87a07001ae4d841309769f8d","amp;dn":"Angie+Tribeca+S02E08+The+Coast+is+Fear+720p+WEB-DL+HEVC+2CH+x265","amp;tr":["udp%3A%2F%2Ftracker.leechers-paradise.org%3A6969","udp%3A%2F%2Fzer0day.ch%3A1337","udp%3A%2F%2Fopen.demonii.com%3A1337","udp%3A%2F%2Ftracker.coppersurfer.tk%3A6969","udp%3A%2F%2Fexodus.desync.com%3A6969"],"infoHash":"c34ab664aea1ab0a87a07001ae4d841309769f8d","infoHashBuffer":{"type":"Buffer","data":[195,74,182,100,174,161,171,10,135,160,112,1,174,77,132,19,9,118,159,141]},"announce":[],"urlList":[]}}